<svg width="362" height="362" viewBox="0 0 362 362" fill="none" xmlns="http://www.w3.org/2000/svg">
<path d="M0 103.35C0 67.5597 0 49.6646 6.8546 35.9464C13.1462 23.355 23.355 13.1462 35.9464 6.8546C49.6646 0 67.5597 0 103.35 0H258.65C294.44 0 312.335 0 326.054 6.8546C338.645 13.1462 348.854 23.355 355.145 35.9464C362 49.6646 362 67.5597 362 103.35V258.65C362 294.44 362 312.335 355.145 326.054C348.854 338.645 338.645 348.854 326.054 355.145C312.335 362 294.44 362 258.65 362H103.35C67.5597 362 49.6646 362 35.9464 355.145C23.355 348.854 13.1462 338.645 6.8546 326.054C0 312.335 0 294.44 0 258.65V103.35Z" fill="#D9D9D9"/>
<circle cx="185" cy="96" r="45" fill="#F2F2F2"/>
<path d="M91 246.5C91 194.861 132.861 153 184.5 153V153C236.139 153 278 194.861 278 246.5V267H91V246.5Z" fill="#F2F2F2"/>
</svg>
